<?xml version="1.0" encoding="UTF-8"?>
<svg width="20px" height="20px" viewBox="0 0 20 20" version="1.1" xmlns="http://www.w3.org/2000/svg" xmlns:xlink="http://www.w3.org/1999/xlink">
    <title>首页-灰</title>
    <g id="首页-灰" stroke="none" stroke-width="1" fill="none" fill-rule="evenodd">
        <path d="M11.1321721,0.416011057 L11.1321721,0.416011029 C10.5206847,-0.138670352 9.58805141,-0.138670352 8.97656007,0.416011086 L0.260057389,8.69269346 L0.260057413,8.69269344 C-0.0669541218,8.99316174 -0.0884701732,9.50183614 0.211998514,9.82884572 C0.508457959,10.1514946 1.00866511,10.1773909 1.33686112,9.8870839 L1.47546452,9.75548572 L1.47546452,18.3939224 L1.47546452,18.3939217 C1.47435879,19.2821058 2.19347674,20.0030167 3.08166082,20.0041242 C3.0823284,20.0041242 3.08299598,20.0041242 3.08366357,20.0041242 L7.76365884,20.0041242 L7.76365884,15.1625045 L7.76365879,15.1624661 C7.76285087,14.5370894 8.26916286,14.0294666 8.89453956,14.0286593 C8.89520709,14.0286585 8.89587463,14.0286582 8.89654217,14.0286585 L11.0986928,14.0286585 L11.0986928,14.0286585 C11.7240695,14.0283816 12.2312623,14.5351242 12.2315379,15.1605009 C12.2315382,15.1611685 12.2315379,15.161836 12.231537,15.1625036 L12.231537,20.0041242 L17.0226113,20.0041242 L17.0226113,20.0041242 C17.9107954,20.0044003 18.6310358,19.28461 18.6313134,18.3964259 C18.6313136,18.3955915 18.6313133,18.3947571 18.6313122,18.3939227 L18.6313122,9.8610531 C18.9885787,10.1842942 19.4954569,10.159776 19.7926786,9.82852884 L19.7926786,9.82852884 C20.0903108,9.49893335 20.0643989,8.99046613 19.7348038,8.69283394 C19.7347476,8.69278323 19.7346915,8.69273253 19.7346353,8.69268183 L11.1321826,0.416507647 L11.1321721,0.416011057 Z" id="路径" fill="#B7C2CF" fill-rule="nonzero"></path>
    </g>
</svg>