<?xml version="1.0" encoding="UTF-8"?>
<svg width="20px" height="20px" viewBox="0 0 20 20" version="1.1" xmlns="http://www.w3.org/2000/svg" xmlns:xlink="http://www.w3.org/1999/xlink">
    <title>信息管理-红</title>
    <g id="信息管理-红" stroke="none" stroke-width="1" fill="none" fill-rule="evenodd">
        <g id="编组-4" fill="#1677FF" fill-rule="nonzero">
            <path d="M19.9181481,14.0300371 C19.8738121,13.788904 19.6408041,13.5440404 19.399671,13.4878294 L19.2191434,13.4478489 L19.2191434,13.4478489 C18.3087693,13.1726318 17.7700656,12.2361854 17.9898061,11.3108543 L18.0460171,11.1422017 C18.1184781,10.9091936 18.0260366,10.583744 17.837384,10.423197 C17.837384,10.423197 17.6687119,10.2782749 17.1908403,10.0053059 C16.7129882,9.73231726 16.5080856,9.65610623 16.5080856,9.65610623 C16.2750775,9.57178973 15.9496279,9.65235623 15.7809754,9.83288378 L15.6566588,9.96970035 L15.6566588,9.96970037 C15.3240764,10.2857886 14.8823981,10.4614275 14.4235714,10.4600525 L14.4235713,10.4600525 C13.9626509,10.4618744 13.5190137,10.2847363 13.186109,9.96595036 L13.0655424,9.83725881 C12.8968899,9.65673125 12.5714403,9.57614522 12.3384322,9.66050079 C12.3384322,9.66050079 12.1291741,9.73669228 11.6513025,10.0103059 C11.1734308,10.28765 11.0047588,10.431947 11.0047588,10.431947 C10.8161257,10.5887441 10.7236647,10.9098186 10.7955007,11.1471822 L10.8479813,11.3202293 L10.8479812,11.3202292 C10.9544952,11.7678958 10.8854168,12.2393592 10.6549537,12.6376526 L10.6549537,12.6376527 C10.4263831,13.0368309 10.052035,13.3319191 9.61051886,13.4609544 L9.43747178,13.5009349 C9.20010822,13.5571654 8.96335013,13.798279 8.91899461,14.0431426 C8.91899461,14.0431426 8.8790141,14.2599202 8.8790141,14.8102528 C8.8790141,15.3605855 8.91899461,15.5773436 8.91899461,15.5773436 C8.96335013,15.8222071 9.19633869,16.0633207 9.43747178,16.1195317 L9.60614385,16.1595318 L9.6061439,16.1595318 C10.5235297,16.4292938 11.0692218,17.3699765 10.8479813,18.3002569 L10.7998758,18.468929 C10.7274147,18.7019371 10.8198563,19.0273671 11.0085088,19.1879142 C11.0085088,19.1879142 11.1771809,19.3328362 11.6550525,19.6058248 C12.1329242,19.8831689 12.3378072,19.9550049 12.3378072,19.9550049 C12.5708153,20.039341 12.8962649,19.9587549 13.0649175,19.7782274 L13.185484,19.6495358 L13.1854839,19.6495359 C13.8787874,18.9903672 14.9671051,18.9903672 15.6604087,19.6495357 L15.7809752,19.7782273 C15.9496277,19.9587548 16.2750773,20.0393409 16.5080854,19.9550048 C16.5080854,19.9550048 16.7173435,19.8787938 17.1952151,19.6058247 C17.6730868,19.3284807 17.8417589,19.1879141 17.8417589,19.1879141 C18.0304114,19.031117 18.1228529,18.705687 18.0503919,18.4689289 L17.9979114,18.2965068 L17.9979113,18.2965066 C17.8914257,17.8500647 17.9605289,17.3797731 18.1909391,16.9828332 L18.1909391,16.9828332 C18.4209023,16.583071 18.7968304,16.2879769 19.2397685,16.1595314 L19.408421,16.1195509 C19.6451596,16.0633204 19.8825426,15.8222068 19.9268982,15.5773432 C19.9268982,15.5773432 19.9668787,15.3605656 19.9668787,14.8102525 C19.9543787,14.2474198 19.9181482,14.0300368 19.9181482,14.0300368 L19.9181481,14.0300371 Z M14.4179464,17.010949 L14.4179464,17.010949 C13.198738,17.0145655 12.2074361,16.0291429 12.2037933,14.8099403 C12.2001767,13.5907319 13.1855993,12.59943 14.4048019,12.5957874 C14.4091794,12.5957874 14.413557,12.5957874 14.4179346,12.5957874 L14.4179345,12.5957874 C15.637143,12.5957874 16.6255152,13.5841596 16.6255152,14.8033583 C16.6255152,16.0225668 15.6371527,17.010949 14.417954,17.010949 C14.417954,17.010949 14.417954,17.010949 14.417954,17.010949 L14.4179464,17.010949 Z" id="形状"></path>
            <path d="M13.6552307,2.39808173e-13 L1.65849798,2.39808173e-13 L1.65849802,2.39808173e-13 C0.743895397,0.000343411025 0.00206640866,0.740775538 5.78204151e-13,1.65537426 L5.78204151e-13,16.9091225 L5.78204151e-13,16.9091276 C0.00207059993,17.8236267 0.74400283,18.5638698 1.65850389,18.5638698 L8.40989847,18.5638698 C8.40989847,18.5638698 5.62700461,7.94639647 15.3143596,7.94639647 L15.3143596,1.65537352 L15.3143596,1.65536716 C15.3122883,0.740524299 14.5700755,2.39808173e-13 13.6552307,2.39808173e-13 L13.6552307,2.39808173e-13 Z M7.39916872,11.0659907 L3.85422319,11.0659907 L3.85422314,11.0659907 C3.45540823,11.0495244 3.14545083,10.7128711 3.16191765,10.3140562 C3.17743107,9.93831944 3.47848638,9.6372644 3.85422314,9.62175071 L7.3991882,9.62175071 L7.39918817,9.62175071 C7.79800309,9.62175071 8.12130815,9.94505578 8.12130815,10.3438707 C8.12130815,10.7426856 7.79800309,11.0659907 7.39918817,11.0659907 L7.39916872,11.0659907 Z M10.8860868,7.73336961 L3.85420366,7.73336961 L3.85420362,7.73336961 C3.45539261,7.7333696 3.13209341,7.41007041 3.13209341,7.0112594 C3.13209341,6.61244839 3.45539261,6.28914918 3.85420362,6.28914918 L10.8860868,6.28914918 L10.8860868,6.28914918 C11.2849017,6.28914918 11.6082068,6.61245425 11.6082068,7.01126916 C11.6082068,7.41008408 11.2849017,7.73338914 10.8860868,7.73338914 L10.8860868,7.73336961 Z M10.8860868,4.45699861 L3.85420366,4.45699861 L3.85420364,4.45699861 C3.45539263,4.45699861 3.13209342,4.13369941 3.13209342,3.7348884 C3.13209342,3.33607739 3.45539263,3.01277818 3.85420364,3.01277818 L10.8860868,3.01277818 L10.8860869,3.01277818 C11.2848979,3.01277818 11.6081971,3.33607739 11.6081971,3.7348884 C11.6081971,4.13369941 11.2848979,4.45699861 10.8860869,4.45699861 L10.8860868,4.45699861 Z" id="形状"></path>
        </g>
    </g>
</svg>