<?xml version="1.0" encoding="UTF-8"?>
<svg width="20px" height="20px" viewBox="0 0 20 20" version="1.1" xmlns="http://www.w3.org/2000/svg" xmlns:xlink="http://www.w3.org/1999/xlink">
    <title>信息管理-灰</title>
    <defs>
        <filter id="filter-1">
            <feColorMatrix in="SourceGraphic" type="matrix" values="0 0 0 0 0.718863 0 0 0 0 0.762524 0 0 0 0 0.813462 0 0 0 1.000000 0"></feColorMatrix>
        </filter>
    </defs>
    <g id="信息管理-灰" stroke="none" stroke-width="1" fill="none" fill-rule="evenodd">
        <g filter="url(#filter-1)" id="信息管理">
            <g>
                <path d="M19.9328357,14.0300359 C19.8884997,13.7889028 19.6554916,13.5440392 19.4143585,13.4878282 L19.233831,13.4478477 L19.233831,13.4478477 C18.3234569,13.1726306 17.7847531,12.2361842 18.0044936,11.310853 L18.0607046,11.1422005 C18.1331657,10.9091924 18.0407241,10.5837428 17.8520716,10.4231957 C17.8520716,10.4231957 17.6833995,10.2782737 17.2055279,10.0053046 C16.7276757,9.73231602 16.5227732,9.65610499 16.5227732,9.65610499 C16.2897651,9.57178849 15.9643155,9.65235499 15.7956629,9.83288254 L15.6713464,9.96969911 L15.6713464,9.96969913 C15.3387639,10.2857874 14.8970857,10.4614263 14.438259,10.4600513 L14.4382589,10.4600513 C13.9773385,10.4618731 13.5337012,10.284735 13.2007965,9.96594912 L13.08023,9.83725757 C12.9115775,9.65673002 12.5861279,9.57614398 12.3531198,9.66049955 C12.3531198,9.66049955 12.1438617,9.73669105 11.6659901,10.0103046 C11.1881184,10.2876487 11.0194463,10.4319458 11.0194463,10.4319458 C10.8308133,10.5887428 10.7383523,10.9098174 10.8101883,11.147181 L10.8626688,11.320228 L10.8626688,11.320228 C10.9691828,11.7678945 10.9001044,12.239358 10.6696412,12.6376514 L10.6696412,12.6376514 C10.4410707,13.0368296 10.0667226,13.3319178 9.62520642,13.4609532 L9.45215934,13.5009337 C9.21479579,13.5571642 8.9780377,13.7982778 8.93368218,14.0431413 C8.93368218,14.0431413 8.89370166,14.2599189 8.89370166,14.8102516 C8.89370166,15.3605843 8.93368218,15.5773423 8.93368218,15.5773423 C8.9780377,15.8222059 9.21102625,16.0633195 9.45215934,16.1195305 L9.62083142,16.1595305 L9.62083147,16.1595305 C10.5382173,16.4292926 11.0839093,17.3699753 10.8626689,18.3002557 L10.8145633,18.4689277 C10.7421023,18.7019358 10.8345438,19.0273659 11.0231964,19.187913 C11.0231964,19.187913 11.1918685,19.332835 11.6697401,19.6058236 C12.1476118,19.8831677 12.3524948,19.9550037 12.3524948,19.9550037 C12.5855029,20.0393397 12.9109525,19.9587537 13.079605,19.7782261 L13.2001716,19.6495346 L13.2001715,19.6495347 C13.893475,18.990366 14.9817927,18.990366 15.6750962,19.6495345 L15.7956628,19.778226 C15.9643153,19.9587536 16.2897649,20.0393396 16.522773,19.9550036 C16.522773,19.9550036 16.732031,19.8787926 17.2099027,19.6058235 C17.6877743,19.3284794 17.8564464,19.1879129 17.8564464,19.1879129 C18.045099,19.0311158 18.1375405,18.7056857 18.0650795,18.4689276 L18.0125989,18.2965056 L18.0125989,18.2965054 C17.9061132,17.8500634 17.9752164,17.3797719 18.2056267,16.982832 L18.2056267,16.9828319 C18.4355898,16.5830697 18.811518,16.2879756 19.254456,16.1595302 L19.4231086,16.1195497 C19.6598471,16.0633191 19.8972302,15.8222056 19.9415857,15.577342 C19.9415857,15.577342 19.9815662,15.3605644 19.9815662,14.8102513 C19.9690662,14.2474186 19.9328357,14.0300355 19.9328357,14.0300355 L19.9328357,14.0300359 Z M14.432634,17.0109477 L14.432634,17.0109477 C13.2134256,17.0145643 12.2221236,16.0291417 12.2184808,14.8099391 C12.2148643,13.5907307 13.2002869,12.5994287 14.4194895,12.5957861 C14.423867,12.5957861 14.4282446,12.5957861 14.4326221,12.5957861 L14.4326221,12.5957861 C15.6518305,12.5957861 16.6402028,13.5841584 16.6402028,14.8033571 C16.6402028,16.0225655 15.6518403,17.0109477 14.4326416,17.0109477 C14.4326416,17.0109477 14.4326416,17.0109477 14.4326415,17.0109477 L14.432634,17.0109477 Z" id="形状" fill="#000000" fill-rule="nonzero"></path>
                <path d="M13.6699183,-1.23876935e-06 L1.67318554,-1.23876935e-06 L1.67318559,-1.23876935e-06 C0.758582962,0.000342172255 0.0167539736,0.740774299 0.014687565,1.65537302 L0.014687565,16.9091212 L0.014687565,16.9091264 C0.0167581649,17.8236255 0.758690395,18.5638685 1.67319146,18.5638685 L8.42458603,18.5638685 C8.42458603,18.5638685 5.64169217,7.94639523 15.3290472,7.94639523 L15.3290472,1.65537228 L15.3290472,1.65536592 C15.3269759,0.74052306 14.5847631,-1.23876935e-06 13.6699183,-1.23876935e-06 L13.6699183,-1.23876935e-06 Z M7.41385628,11.0659894 L3.86891075,11.0659894 L3.86891071,11.0659894 C3.47009579,11.0495231 3.1601384,10.7128699 3.17660521,10.314055 C3.19211863,9.9383182 3.49317394,9.63726317 3.86891071,9.62174948 L7.41387577,9.62174948 L7.41387574,9.62174948 C7.81269066,9.62174948 8.13599572,9.94505454 8.13599572,10.3438695 C8.13599572,10.7426844 7.81269066,11.0659894 7.41387574,11.0659894 L7.41385628,11.0659894 Z M10.9007744,7.73336837 L3.86889122,7.73336837 L3.86889119,7.73336837 C3.47008018,7.73336836 3.14678097,7.41006917 3.14678097,7.01125816 C3.14678097,6.61244715 3.47008018,6.28914794 3.86889119,6.28914794 L10.9007744,6.28914794 L10.9007743,6.28914794 C11.2995893,6.28914794 11.6228943,6.61245301 11.6228943,7.01126792 C11.6228943,7.41008284 11.2995893,7.73338791 10.9007743,7.73338791 L10.9007744,7.73336837 Z M10.9007744,4.45699737 L3.86889122,4.45699737 L3.8688912,4.45699737 C3.47008019,4.45699737 3.14678099,4.13369817 3.14678099,3.73488716 C3.14678099,3.33607615 3.47008019,3.01277694 3.8688912,3.01277694 L10.9007744,3.01277694 L10.9007744,3.01277694 C11.2995854,3.01277694 11.6228846,3.33607615 11.6228846,3.73488716 C11.6228846,4.13369817 11.2995854,4.45699737 10.9007744,4.45699737 L10.9007744,4.45699737 Z" id="形状" fill="#000000" fill-rule="nonzero"></path>
            </g>
        </g>
    </g>
</svg>