<?xml version="1.0" encoding="UTF-8"?>
<svg width="20px" height="20px" viewBox="0 0 20 20" version="1.1" xmlns="http://www.w3.org/2000/svg" xmlns:xlink="http://www.w3.org/1999/xlink">
    <title>关系管理-灰</title>
    <defs>
        <filter id="filter-1">
            <feColorMatrix in="SourceGraphic" type="matrix" values="0 0 0 0 0.718863 0 0 0 0 0.762524 0 0 0 0 0.813462 0 0 0 1.000000 0"></feColorMatrix>
        </filter>
    </defs>
    <g id="关系管理-灰" stroke="none" stroke-width="1" fill="none" fill-rule="evenodd">
        <g filter="url(#filter-1)" id="关系">
            <g>
                <path d="M18.529257,9.86419689 L18.5292569,9.86419685 C17.731506,9.61175906 16.8595616,9.82252649 16.2651918,10.4114709 L14.759147,9.88085703 C14.9107511,8.95873681 14.5675595,8.04244864 13.8661831,7.41936979 L14.5142483,6.19904024 C16.0436173,6.6113708 17.7237638,5.97163373 18.4826123,4.60553058 C19.3405918,3.05450338 18.6808645,1.14613202 17.012386,0.348963123 C15.3430754,-0.447375694 13.2889246,0.165705488 12.4309353,1.71506627 C11.7070673,3.01702873 12.0569232,4.57221804 13.1781276,5.51100819 L12.5358925,6.72550765 C11.2464242,6.40564009 9.90364333,6.91459635 9.20393549,7.92334694 L7.59293361,7.34858455 C7.91946524,5.64595366 6.85740346,3.93332667 5.03648533,3.36356038 C3.03480331,2.74048348 0.869878917,3.74340262 0.19931173,5.60846534 C-0.472077723,7.46769797 0.607476268,9.47936828 2.6149786,10.1024354 C4.26096685,10.6122251 6.01773647,10.0274664 6.96318679,8.76965261 L8.71413023,9.38689747 C8.69080657,10.2865255 9.13978893,11.144505 9.90530545,11.691783 L8.45756939,14.4289932 C7.07480606,14.0391548 5.54543709,14.6139168 4.85654957,15.850073 C4.086035,17.2428324 4.67579077,18.9562875 6.1751722,19.6776555 C7.67455285,20.3931935 9.51962922,19.8450864 10.2959778,18.4523279 C10.9140566,17.3402876 10.6574958,16.0233212 9.77119396,15.1720116 L11.3172231,12.2498793 C12.3617927,12.3914875 13.399706,12.0166427 14.0719138,11.2844446 L15.7054059,11.859207 C15.7520533,12.6563778 16.3068246,13.3777478 17.1648041,13.6484688 C18.2851746,13.9958247 19.50551,13.4318924 19.878694,12.3906549 C20.2577042,11.3444193 19.6562855,10.2115508 18.5300831,9.86420662 L18.529257,9.86419689 Z" id="路径" fill="#000000" fill-rule="nonzero"></path>
            </g>
        </g>
    </g>
</svg>