<?xml version="1.0" encoding="UTF-8"?>
<svg width="20px" height="21px" viewBox="0 0 20 21" version="1.1" xmlns="http://www.w3.org/2000/svg" xmlns:xlink="http://www.w3.org/1999/xlink">
    <title>管理员管理-灰</title>
    <g id="管理员管理-灰" stroke="none" stroke-width="1" fill="none" fill-rule="evenodd">
        <g id="管理员" fill="#B7C2CF">
            <path d="M18.5408796,16.5045207 C18.6610926,17.3212614 19.3576204,17.201049 19.4778327,17.5652239 C19.4778327,17.7932757 19.3576197,18.6259272 19.0093562,18.7302288 L19.0093563,18.7302288 C18.623341,18.670191 18.2303668,18.670191 17.8443514,18.7302288 L17.8443515,18.7302288 C17.6029589,18.8192137 17.3965736,18.9834542 17.2556626,19.1987053 C17.0276108,19.7873943 17.4837143,20.2594086 17.2556626,20.4839226 C16.9073984,20.7119744 16.1949593,21.0726115 15.9704453,20.8321868 C15.6221811,20.4839226 15.6221811,20.0154461 14.909742,20.0154461 C13.9727889,20.0154461 13.9727889,20.9523992 13.5043124,20.9523992 C13.0358358,20.9523992 12.2190951,20.604135 12.2190951,20.2558708 C12.3393081,19.7873943 12.5673593,19.4391301 12.0988821,18.9706535 C11.5101932,18.502177 10.8136649,18.9706535 10.5732381,18.7426018 L10.5732382,18.7426018 C10.236105,18.4578803 10.0994171,18.000635 10.224974,17.577597 C10.345187,17.2293328 11.1619271,17.2293328 11.1619271,16.2923797 C11.1619271,15.5958513 10.3451864,15.475639 10.224974,15.0071624 L10.224974,15.0071624 C10.1235955,14.5883639 10.3156132,14.1536056 10.6934505,13.9464591 C11.2821395,13.7184074 11.6304036,14.1745109 12.2190946,13.7184074 C12.5673588,13.3701432 12.4471464,12.5534025 12.4471464,12.3129777 C12.5673594,11.9647135 13.0358353,11.8445012 13.3840995,11.8445012 C14.0806278,11.8445012 13.8525761,12.6612419 14.7895292,12.7814543 C15.7264823,12.7814543 15.6062699,12.4331901 16.0747464,11.8445012 L16.0747464,11.8445012 C16.5170979,11.7952194 16.9546635,11.9711756 17.2397512,12.3129777 C17.467803,12.7814543 17.0116994,13.4779826 17.7082278,13.9464592 C18.2969167,14.2947233 18.8732327,13.8262462 19.2338719,13.9464592 C19.4619237,14.0666721 19.582136,14.4149357 19.7023484,14.8834123 C19.4742966,15.5675656 18.4171311,15.4473532 18.5373435,16.5045187 L18.5408796,16.5045207 Z M14.3245968,14.1621277 C11.5137416,14.8586561 12.570903,18.9547244 15.2615499,18.4986413 C17.9645739,17.9073006 17.6048228,13.5760947 14.3254808,14.1621277 L14.3245968,14.1621277 Z M9.53200011,10.0660553 L9.53199989,10.0660553 C6.75232776,10.0660553 4.49896204,7.81268952 4.49896204,5.03301739 C4.49896204,2.25334526 6.75232776,-2.04613333e-05 9.53199989,-2.04613333e-05 C12.311672,-2.04613333e-05 14.5650379,2.25334526 14.5650379,5.03301739 L14.5650379,5.03299703 C14.5448307,7.80423909 12.303283,10.0458191 9.5320205,10.0660553 L9.53200011,10.0660553 Z M13.6280787,11.2310601 C13.6280787,11.2310601 11.7541643,11.2310601 11.8743788,12.5162774 C11.9945918,13.921707 10.1206849,12.8645416 9.77242692,14.0419215 C9.30395037,15.4473511 10.0004787,15.2069264 10.3611158,16.1438733 C10.5891676,16.7325623 9.42416275,17.0808264 9.54437513,18.1379939 C9.77242692,19.5434236 10.9498048,18.8345223 11.2980689,19.663638 C11.5261207,20.3601664 10.70938,20.8286429 8.83546563,20.8286429 C7.30982156,20.8286429 4.39112081,20.8286429 3.33396556,20.7084299 C3.33396556,20.7084299 0.29504833,20.5882169 0.29504833,18.6064781 L0.295048301,18.6064752 C0.276181151,16.7758509 0.896361873,14.9959707 2.04874417,13.5734374 L2.04874418,13.5734374 C3.39358987,11.9880585 5.35169445,11.0527443 7.43003392,11.0030028 L13.6280787,11.2310546 L13.6280787,11.2310601 Z" id="形状"></path>
        </g>
    </g>
</svg>