<?xml version="1.0" encoding="UTF-8"?>
<svg width="20px" height="15px" viewBox="0 0 20 15" version="1.1" xmlns="http://www.w3.org/2000/svg" xmlns:xlink="http://www.w3.org/1999/xlink">
    <title>视频管理-红</title>
    <g id="视频管理-红" stroke="none" stroke-width="1" fill="none" fill-rule="evenodd">
        <path d="M15.5515415,3.04845332 L15.5515415,2.68001402 C15.5515415,1.19959784 14.3671267,5.32907052e-14 12.8855691,5.32907052e-14 L2.68264145,5.32907052e-14 C1.20103359,5.32907052e-14 1.20792265e-13,1.1995921 1.20792265e-13,2.68001402 L1.20792265e-13,11.6911974 C1.20792265e-13,13.1713408 1.20102641,14.3712832 2.68264145,14.3712832 L12.8855691,14.3712832 C14.3671339,14.3712832 15.5515415,13.1713236 15.5515415,11.6911974 L15.5515415,11.3228256 C15.5515415,11.3228256 19.2087413,13.1529474 19.6535223,12.8643616 C20.0981669,12.5759367 20.1189293,1.7669043 19.6534994,1.46426256 C19.1879546,1.161315 15.551533,3.04845475 15.551533,3.04845475 L15.5515415,3.04845332 Z M11.8369978,7.97331989 C10.1479241,8.97297232 8.45883599,9.97263048 6.76976226,10.9722858 C5.33195913,11.8232247 5.33195913,10.4263662 5.33195913,10.4263662 L5.33195913,3.90768795 C5.33195913,3.90768795 5.33195913,2.51082955 6.91445714,3.44740517 C8.24670823,4.235876 10.4261724,5.5257538 11.8365527,6.36047013 C12.643997,6.83834229 13.1993637,7.18565309 11.8369912,7.97331989 L11.8369978,7.97331989 Z" id="形状" fill="#1677FF" fill-rule="nonzero"></path>
    </g>
</svg>