<?xml version="1.0" encoding="UTF-8"?>
<svg width="20px" height="15px" viewBox="0 0 20 15" version="1.1" xmlns="http://www.w3.org/2000/svg" xmlns:xlink="http://www.w3.org/1999/xlink">
    <title>视频管理-灰</title>
    <defs>
        <filter id="filter-1">
            <feColorMatrix in="SourceGraphic" type="matrix" values="0 0 0 0 0.718863 0 0 0 0 0.762524 0 0 0 0 0.813462 0 0 0 1.000000 0"></feColorMatrix>
        </filter>
    </defs>
    <g id="视频管理-灰" stroke="none" stroke-width="1" fill="none" fill-rule="evenodd">
        <g filter="url(#filter-1)" id="视频">
            <g>
                <path d="M15.5514697,3.23223219 L15.5514697,2.86379289 C15.5514697,1.38337671 14.3670549,0.183778872 12.8854973,0.183778872 L2.68256966,0.183778872 C1.2009618,0.183778872 -7.17875e-05,1.38337097 -7.17875e-05,2.86379289 L-7.17875e-05,11.8749763 C-7.17875e-05,13.3551197 1.20095462,14.5550621 2.68256966,14.5550621 L12.8854973,14.5550621 C14.3670621,14.5550621 15.5514697,13.3551024 15.5514697,11.8749763 L15.5514697,11.5066044 C15.5514697,11.5066044 19.2086695,13.3367263 19.6534505,13.0481405 C20.0980951,12.7597156 20.1188575,1.95068317 19.6534277,1.64804143 C19.1878828,1.34509387 15.5514612,3.23223362 15.5514612,3.23223362 L15.5514697,3.23223219 Z M11.836926,8.15709877 C10.1478523,9.15675119 8.4587642,10.1564094 6.76969047,11.1560647 C5.33188734,12.0070035 5.33188734,10.6101451 5.33188734,10.6101451 L5.33188734,4.09146683 C5.33188734,4.09146683 5.33188734,2.69460842 6.91438535,3.63118404 C8.24663644,4.41965487 10.4261006,5.70953267 11.8364809,6.544249 C12.6439252,7.02212116 13.199292,7.36943196 11.8369194,8.15709877 L11.836926,8.15709877 Z" id="形状" fill="#000000" fill-rule="nonzero"></path>
            </g>
        </g>
    </g>
</svg>