<?xml version="1.0" encoding="UTF-8"?>
<svg width="24px" height="24px" viewBox="0 0 24 24" version="1.1" xmlns="http://www.w3.org/2000/svg" xmlns:xlink="http://www.w3.org/1999/xlink">
    <title>2</title>
    <defs>
        <linearGradient x1="50%" y1="23.449%" x2="50%" y2="75.252%" id="linearGradient-1">
            <stop stop-color="#DB3A3A" offset="0%"></stop>
            <stop stop-color="#FF5555" offset="100%"></stop>
        </linearGradient>
        <polygon id="path-2" points="2.77 1.434 9.77 1.434 9.77 11.434 6.288 8.434 2.77 11.434"></polygon>
        <polygon id="path-4" points="2.567 1.434 9.567 1.434 9.567 11.434 6.086 8.434 2.567 11.434"></polygon>
        <linearGradient x1="109.785%" y1="120.864%" x2="17.109%" y2="12.468%" id="linearGradient-6">
            <stop stop-color="#8996AE" offset="0%"></stop>
            <stop stop-color="#E0EDFD" offset="100%"></stop>
        </linearGradient>
        <polygon id="path-7" points="10 0 17.071 2.929 20 10 17.071 17.071 10 20 2.929 17.071 0 10 2.929 2.929"></polygon>
        <linearGradient x1="43.055%" y1="50%" x2="85.63%" y2="84.641%" id="linearGradient-9">
            <stop stop-color="#95A3BC" offset="0%"></stop>
            <stop stop-color="#EBEFF3" offset="100%"></stop>
        </linearGradient>
        <polygon id="path-10" points="10 0 17.071 2.929 20 10 17.071 17.071 10 20 2.929 17.071 0 10 2.929 2.929"></polygon>
        <polygon id="path-12" points="10 0 17.071 2.929 20 10 17.071 17.071 10 20 2.929 17.071 0 10 2.929 2.929"></polygon>
    </defs>
    <g id="2" stroke="none" stroke-width="1" fill="none" fill-rule="evenodd">
        <g id="编组">
            <g transform="translate(0.000000, 10.000000)">
                <g transform="translate(9.163000, 0.477000)">
                    <g id="zfsotcl4pa-link" transform="translate(7.069173, 7.626158) rotate(-30.000000) translate(-7.069173, -7.626158) translate(3.069173, 2.126158)" fill="url(#linearGradient-1)" fill-rule="nonzero">
                        <polygon id="zfsotcl4pa" points="0.77 0.434 7.77 0.434 7.77 10.434 4.288 7.434 0.77 10.434"></polygon>
                    </g>
                    <g id="Clipped" transform="translate(1.000000, 1.000000)">
                        <mask id="mask-3" fill="white">
                            <use xlink:href="#path-2"></use>
                        </mask>
                        <g id="zfsotcl4pa" transform="translate(6.270000, 6.434000) rotate(-30.000000) translate(-6.270000, -6.434000) "></g>
                        <polygon id="路径" fill="#D23131" fill-rule="nonzero" mask="url(#mask-3)" transform="translate(5.668500, 6.196500) scale(-1, 1) translate(-5.668500, -6.196500) " points="1 6.023 8.402 9.343 10.337 7 1.512 3.05"></polygon>
                    </g>
                </g>
                <g transform="translate(0.500000, 0.477000)">
                    <g id="3jzmcednid-link" transform="translate(7.091848, 7.524610) scale(-1, 1) rotate(-30.000000) translate(-7.091848, -7.524610) translate(3.091848, 2.024610)" fill="url(#linearGradient-1)" fill-rule="nonzero">
                        <polygon id="3jzmcednid" points="0.567 0.434 7.567 0.434 7.567 10.434 4.086 7.434 0.567 10.434"></polygon>
                    </g>
                    <g id="Clipped" transform="translate(1.000000, 1.000000)">
                        <mask id="mask-5" fill="white">
                            <use xlink:href="#path-4"></use>
                        </mask>
                        <g id="3jzmcednid" transform="translate(6.067000, 6.434000) rotate(-330.000000) translate(-6.067000, -6.434000) "></g>
                        <polygon id="路径" fill="#D23131" fill-rule="nonzero" mask="url(#mask-5)" points="2 6.023 9.402 9.343 11.337 7 2.512 3.05"></polygon>
                    </g>
                </g>
            </g>
            <g transform="translate(2.000000, 0.000000)">
                <g id="up263gc9xf-link" fill="url(#linearGradient-6)" fill-rule="nonzero">
                    <polygon id="up263gc9xf" points="10 0 17.071 2.929 20 10 17.071 17.071 10 20 2.929 17.071 0 10 2.929 2.929"></polygon>
                </g>
                <g id="Clipped">
                    <mask id="mask-8" fill="white">
                        <use xlink:href="#path-7"></use>
                    </mask>
                    <g id="up263gc9xf"></g>
                    <polygon id="路径" fill="url(#linearGradient-9)" fill-rule="nonzero" mask="url(#mask-8)" points="15 0 20 0 20 20 5 20"></polygon>
                </g>
                <g id="Clipped">
                    <mask id="mask-11" fill="white">
                        <use xlink:href="#path-10"></use>
                    </mask>
                    <g id="up263gc9xf"></g>
                    <g id="编组" mask="url(#mask-11)">
                        <g transform="translate(6.000000, 5.000000)" id="jn5cic4bwk-link">
                            <g>
                                <path d="M6.136,9.039 L6.406,7.51 L3.039,7.51 L4.37,6.234 C5.062,5.646 5.572,5.177 5.898,4.826 C6.225,4.476 6.479,4.14 6.661,3.821 C6.843,3.501 6.964,3.173 7.024,2.836 C7.166,2.036 7.024,1.422 6.6,0.996 C6.176,0.568 5.501,0.354 4.576,0.354 C4,0.354 3.456,0.48 2.946,0.731 C2.435,0.981 2.009,1.329 1.667,1.774 C1.326,2.219 1.109,2.704 1.015,3.23 L3.003,3.23 C3.071,2.845 3.222,2.525 3.455,2.268 C3.689,2.011 3.957,1.883 4.259,1.883 C4.564,1.883 4.781,1.979 4.907,2.171 C5.034,2.363 5.065,2.644 4.999,3.012 C4.919,3.467 4.471,4.08 3.656,4.852 L0.392,7.745 L0.163,9.039 L6.137,9.039 L6.136,9.039 Z" id="jn5cic4bwk" fill="#000000" fill-rule="nonzero"></path>
                            </g>
                            <g>
                                <path d="M6.136,9.039 L6.406,7.51 L3.039,7.51 L4.37,6.234 C5.062,5.646 5.572,5.177 5.898,4.826 C6.225,4.476 6.479,4.14 6.661,3.821 C6.843,3.501 6.964,3.173 7.024,2.836 C7.166,2.036 7.024,1.422 6.6,0.996 C6.176,0.568 5.501,0.354 4.576,0.354 C4,0.354 3.456,0.48 2.946,0.731 C2.435,0.981 2.009,1.329 1.667,1.774 C1.326,2.219 1.109,2.704 1.015,3.23 L3.003,3.23 C3.071,2.845 3.222,2.525 3.455,2.268 C3.689,2.011 3.957,1.883 4.259,1.883 C4.564,1.883 4.781,1.979 4.907,2.171 C5.034,2.363 5.065,2.644 4.999,3.012 C4.919,3.467 4.471,4.08 3.656,4.852 L0.392,7.745 L0.163,9.039 L6.137,9.039 L6.136,9.039 Z" id="jn5cic4bwk" fill="#FFFFFF" fill-rule="nonzero"></path>
                            </g>
                        </g>
                    </g>
                </g>
                <g id="Clipped">
                    <mask id="mask-13" fill="white">
                        <use xlink:href="#path-12"></use>
                    </mask>
                    <g id="up263gc9xf"></g>
                    <polygon id="路径" opacity="0.3" mask="url(#mask-13)" points="15 0 20 0 20 20 5 20"></polygon>
                </g>
            </g>
        </g>
    </g>
</svg>