<?xml version="1.0" encoding="UTF-8"?>
<svg width="20px" height="18px" viewBox="0 0 20 18" version="1.1" xmlns="http://www.w3.org/2000/svg" xmlns:xlink="http://www.w3.org/1999/xlink">
    <title>日期</title>
    <g id="日期" stroke="none" stroke-width="1" fill="none" fill-rule="evenodd">
        <g fill="#000000" fill-rule="nonzero" id="形状">
            <path d="M6.59918267,4.1875072 C6.22334962,4.1875072 5.92084926,3.87583945 5.92084926,3.5000064 L5.92084926,0.7500032 C5.92084926,0.374170145 6.22334962,0.0625024 6.59918267,0.0625024 C6.97501573,0.0625024 7.27751608,0.374170145 7.27751608,0.7500032 L7.27751608,3.5000064 C7.27751608,3.87583945 6.96584833,4.1875072 6.59918267,4.1875072 Z M19.5333715,4.1875072 L19.5333715,15.18752 C19.5333715,16.7000218 18.3050375,17.9375232 16.8108684,17.9375232 L3.1891787,17.9375232 C1.69500958,17.9375232 0.466675535,16.7000218 0.466675535,15.18752 L0.466675535,4.1875072 C0.466675535,2.67500544 1.69500958,1.437504 3.1891787,1.437504 L5.53585526,1.437504 L5.53585526,3.5000064 C5.53585526,4.08667447 6.0125232,4.57250765 6.59002387,4.57250765 C7.16752454,4.57250765 7.64419248,4.09583971 7.64419248,3.5000064 L7.64419248,1.437504 L12.3375241,1.437504 L12.3375241,3.5000064 C12.3375241,4.08667447 12.8141921,4.57250765 13.3916927,4.57250765 C13.9691934,4.57250765 14.4458613,4.09583971 14.4458613,3.5000064 L14.4458613,1.437504 L16.7925379,1.437504 C18.3050397,1.437504 19.5333715,2.67500544 19.5333715,4.1875072 L19.5333715,4.1875072 Z M7.27753112,13.1250176 C7.27753112,12.7400172 6.97503076,12.4375168 6.59919771,12.4375168 L5.2333635,12.4375168 C4.84836306,12.4375168 4.5550301,12.7400172 4.5550301,13.1250176 C4.5550301,13.510018 4.85753045,13.8125184 5.2333635,13.8125184 L6.59919771,13.8125184 C6.97503076,13.8125184 7.27753112,13.510018 7.27753112,13.1250176 Z M7.27753112,10.3750144 C7.27753112,9.99001395 6.97503076,9.6875136 6.59919771,9.6875136 L5.2333635,9.6875136 C4.84836306,9.6875136 4.5550301,9.99001395 4.5550301,10.3750144 C4.5550301,10.7600148 4.85753045,11.0625152 5.2333635,11.0625152 L6.59919771,11.0625152 C6.97503076,11.0625152 7.27753112,10.7600148 7.27753112,10.3750144 Z M11.365862,13.1250176 C11.365862,12.7400172 11.0633617,12.4375168 10.6875286,12.4375168 L9.32169443,12.4375168 C8.93669398,12.4375168 8.64336103,12.7400172 8.64336103,13.1250176 C8.64336103,13.510018 8.94586138,13.8125184 9.32169443,13.8125184 L10.6875286,13.8125184 C11.0633617,13.8125184 11.365862,13.510018 11.365862,13.1250176 Z M11.365862,10.3750144 C11.365862,9.99001395 11.0633617,9.6875136 10.6875286,9.6875136 L9.32169443,9.6875136 C8.93669398,9.6875136 8.64336103,9.99001395 8.64336103,10.3750144 C8.64336103,10.7600148 8.94586138,11.0625152 9.32169443,11.0625152 L10.6875286,11.0625152 C11.0633617,11.0625152 11.365862,10.7600148 11.365862,10.3750144 Z M15.4450406,13.1250176 C15.4450406,12.7400172 15.1425403,12.4375168 14.7667072,12.4375168 L13.400873,12.4375168 C13.0158726,12.4375168 12.7225396,12.7400172 12.7225396,13.1250176 C12.7225396,13.510018 13.02504,13.8125184 13.400873,13.8125184 L14.7667072,13.8125184 C15.1517077,13.8125184 15.4450406,13.510018 15.4450406,13.1250176 Z M15.4450406,10.3750144 C15.4450406,9.99001395 15.1425403,9.6875136 14.7667072,9.6875136 L13.400873,9.6875136 C13.0158726,9.6875136 12.7225396,9.99001395 12.7225396,10.3750144 C12.7225396,10.7600148 13.02504,11.0625152 13.400873,11.0625152 L14.7667072,11.0625152 C15.1517077,11.0625152 15.4450406,10.7600148 15.4450406,10.3750144 Z M18.1675438,6.2500096 C18.1675438,5.86500915 17.8650434,5.5625088 17.4892104,5.5625088 L2.51086678,5.5625088 C2.12586633,5.5625088 1.83253337,5.86500915 1.83253337,6.2500096 C1.83253337,6.63501005 2.13503373,6.9375104 2.51086678,6.9375104 L17.4892104,6.9375104 C17.8742108,6.9375104 18.1675438,6.63501005 18.1675438,6.2500096 Z M14.0883652,3.5000064 L14.0883652,0.7500032 C14.0883652,0.374170145 13.7858649,0.0625024 13.4100318,0.0625024 C13.0341988,0.0625024 12.7316984,0.374170145 12.7316984,0.7500032 L12.7316984,3.5000064 C12.7316984,3.87583945 13.0341988,4.1875072 13.4100318,4.1875072 C13.7766996,4.1875072 14.0883652,3.87583945 14.0883652,3.5000064 Z"></path>
        </g>
    </g>
</svg>