<?xml version="1.0" encoding="UTF-8"?>
<svg width="40px" height="40px" viewBox="0 0 40 40" version="1.1" xmlns="http://www.w3.org/2000/svg" xmlns:xlink="http://www.w3.org/1999/xlink">
    <title>logo</title>
    <g id="logo" stroke="none" stroke-width="1" fill="none" fill-rule="evenodd">
        <g id="编组-29">
            <circle id="椭圆形" stroke="#FFFFFF" stroke-width="2" cx="20" cy="20" r="19"></circle>
            <path d="M24.0853127,23.7959998 C23.6888588,23.7959998 23.3188352,23.8782153 22.9752762,24.0288605 C22.948846,24.0014672 22.9355792,23.9740382 22.9091834,23.9466807 L15.8524071,16.6739247 C15.3766624,16.1808099 14.6894756,16.0164859 14.0684162,16.1945244 L14.0551838,16.1808099 C14.0419515,16.1945244 14.0154868,16.1945244 14.0023233,16.2082389 C13.7776489,16.27674 13.5529744,16.3999919 13.3547647,16.5780304 C9.02030532,19.2762509 6.04698713,25.7820306 6.04698713,31.1646858 C6.04698713,31.9179832 5.94126609,32.2740959 6.04698713,33 L19.631831,33 L19.631831,25.9052468 L20.3057854,26.6037934 C20.4247388,26.7270453 20.5436923,26.822904 20.6758091,26.9050481 C20.741902,27.5898802 21.296903,28.124067 21.9708919,28.124067 C22.6051837,28.124067 23.1337544,27.6583455 23.2527078,27.0420145 L23.2791381,27.0420145 L23.2791381,26.7680817 C23.2791381,26.3161104 23.6359638,25.9600334 24.0588136,25.9600334 C24.4948956,25.9600334 24.838489,26.3298249 24.838489,26.7681174 L24.838489,33 L26.9264107,33 L26.9264107,26.7681531 C26.9529099,25.1245561 25.6710595,23.7959998 24.0853127,23.7959998 L24.0853127,23.7959998 Z M27.9704577,10.4968287 C27.8646677,10.0722507 26.556456,9.5106705 26.1467352,9.62024364 L25.8956994,9.6887447 L24.6535117,8.23693641 C24.5213603,8.08629121 23.8606038,7.38778035 23.3584633,7.08641853 C22.6448463,6.6618405 17.1078273,7.88082373 16.3942447,9.01762712 C16.090245,9.5106705 15.9581282,10.0859294 15.8920697,10.3598266 L15.4559532,12.5923613 L15.204883,12.6608623 C14.7951967,12.7704355 13.9362304,13.9345964 14.041917,14.3591745 C14.1476381,14.7837525 14.5705222,15.0440065 14.9934064,14.9207546 L16.6584784,14.4687476 C17.0549323,16.6602102 18.918214,18.317486 21.1515538,18.317486 C23.675592,18.317486 25.7238511,16.2082389 25.7238511,13.605877 C25.7238511,13.0580114 25.6313624,12.5238959 25.4596174,12.0307811 L27.4154222,11.4829869 C27.8382375,11.3596993 28.0893766,10.9214067 27.9704577,10.4968287 Z M24.5081624,8.05886222 L24.6535117,8.2369007 C24.7063377,8.30540176 24.6799419,8.26429398 24.5081624,8.05886222 Z" id="形状" fill="#FFFFFF" fill-rule="nonzero"></path>
            <path d="M6,32 L34,32 L29.1157227,37 C25.1049805,38.4029948 22.0664062,39.1044922 20,39.1044922 C17.9335938,39.1044922 14.8299154,38.4029948 10.6889648,37 L6,32 Z" id="矩形" fill="#FFFFFF"></path>
        </g>
    </g>
</svg>