<?xml version="1.0" encoding="UTF-8"?>
<svg width="52px" height="46px" viewBox="0 0 52 46" version="1.1" xmlns="http://www.w3.org/2000/svg" xmlns:xlink="http://www.w3.org/1999/xlink">
    <title>上传照片</title>
    <g id="上传照片" stroke="none" stroke-width="1" fill="none" fill-rule="evenodd">
        <g id="照片" fill="#D9D9D9" fill-rule="nonzero">
            <path d="M41.0786729,1.77635684e-14 C42.6924787,1.77635684e-14 44.0128641,1.32038542 44.0128641,2.93419122 L44.0128641,2.93419122 L44.0121081,27.0000143 C44.0080732,27.0000048 44.0040372,27 44,27 L43.7831104,27.0046195 C41.1223067,27.1181819 39,29.3112453 39,32 L39,33 L37.99925,33 C37.3491704,33 36.7280413,33.1241294 36.1582751,33.3499855 C35.4307594,32.2693113 33.577895,29.5699494 30.599775,25.2516062 C30.5553928,25.1872509 30.5072754,25.1255532 30.4556707,25.0668306 C29.7265313,24.2371213 28.4628348,24.1555932 27.633119,24.8847252 L27.633119,24.8847252 L24.4810418,27.6547357 L16.6811617,19.6734822 C16.6006189,19.5910665 16.5131039,19.5157661 16.4195935,19.4484216 C15.5232749,18.8029087 14.2733736,19.0062268 13.6278607,19.9025453 L13.6278607,19.9025453 L4.64576602,32.3745156 C4.52274224,32.5453386 4.45676467,32.750629 4.4572326,32.9611406 C4.45846023,33.513424 4.90716957,33.960143 5.45945296,33.9589153 L5.45945296,33.9589153 L35.148962,33.891833 C33.8502515,34.7948906 33,36.2981519 33,38 L33.0046195,38.2168896 C33.0867512,40.1412619 34.2565892,41.7839673 35.9149888,42.545861 L2.93419122,42.545783 C1.32038542,42.545783 -8.8817842e-13,41.2253976 -8.8817842e-13,39.6115918 L-8.8817842e-13,39.6115918 L-8.8817842e-13,2.93419122 C-8.8817842e-13,1.32038542 1.32038542,1.77635684e-14 2.93419122,1.77635684e-14 L2.93419122,1.77635684e-14 Z M44,30 L44.012,30 L44.0128641,39.6115918 C44.0128641,40.903597 43.1665594,42.0075337 42.0009308,42.3964211 L41.999,39.999 L38,40 C36.8954305,40 36,39.1045695 36,38 C36,36.8954305 36.8954305,36 38,36 L42,35.999 L42,32 C42,30.8954305 42.8954305,30 44,30 Z M31.6892419,9.31605618 C29.4885995,9.31605618 27.6547315,11.1499241 27.6547315,13.3505665 C27.6547315,15.5512089 29.4885995,17.3850768 31.6892419,17.3850768 C33.8898842,17.3850768 35.7237522,15.5512089 35.7237522,13.3505665 C35.7237522,11.1499241 33.8898842,9.31605618 31.6892419,9.31605618 Z" id="形状结合"></path>
        </g>
        <path d="M44,30 C45.1045695,30 46,30.8954305 46,32 L46,35.999 L50,36 C51.1045695,36 52,36.8954305 52,38 C52,39.1045695 51.1045695,40 50,40 L46,39.999 L46,44 C46,45.1045695 45.1045695,46 44,46 C42.8954305,46 42,45.1045695 42,44 L41.999,39.999 L38,40 C36.8954305,40 36,39.1045695 36,38 C36,36.8954305 36.8954305,36 38,36 L42,35.999 L42,32 C42,30.8954305 42.8954305,30 44,30 Z" id="形状结合" fill="#D8D8D8"></path>
    </g>
</svg>