<?xml version="1.0" encoding="UTF-8"?>
<svg width="32px" height="32px" viewBox="0 0 32 32" version="1.1" xmlns="http://www.w3.org/2000/svg" xmlns:xlink="http://www.w3.org/1999/xlink">
    <title>默认头像</title>
    <g id="默认头像" stroke="none" stroke-width="1" fill="none" fill-rule="evenodd">
        <g id="编组" fill-rule="nonzero">
            <g id="编组">
                <path d="M0,15.9992808 C0,24.8358354 7.16335291,32 16.0007506,32 C24.8352085,32 32,24.8358354 32,15.9992808 C32,7.16272616 24.8366784,0 16.0022205,0 C7.16335291,0 0,7.16269488 0,15.9992808" id="路径" fill="#DEDFE3"></path>
                <path d="M19.4411398,21.9223963 C19.2825276,21.8606288 18.2991323,21.4166501 18.9306999,19.5847402 C20.5153962,17.9425468 21.7525709,15.3204085 21.7525709,12.7313301 C21.7525709,8.75144969 19.090768,6.66666667 16.0151175,6.66666667 C12.9092006,6.66666667 10.2776951,8.75144969 10.2776951,12.7313301 C10.2776951,15.3204085 11.4831473,17.9741251 13.0995661,19.6163802 C13.7311027,21.2614752 12.5905513,21.8606288 12.3699193,21.9540054 C9.13711269,23.1235435 5.33333333,25.2399356 5.33333333,27.356266 L5.33333333,27.9252922 C8.123451,30.4195432 11.8638165,32 15.9848201,32 C20.1058238,32 23.8447952,30.4195432 26.6666667,27.8606231 L26.6666667,27.2931095 C26.6680913,25.1436883 22.8628559,23.0272961 19.4411398,21.9224272" id="路径" fill="#ACB0B3"></path>
            </g>
        </g>
    </g>
</svg>